<mxfile host="65bd71144e">
    <diagram id="_VDsAfKAhV5_FcWlsU1B" name="ページ1">
        <mxGraphModel dx="1787" dy="555" grid="0" gridSize="10" guides="1" tooltips="1" connect="1" arrows="1" fold="1" page="0" pageScale="1" pageWidth="827" pageHeight="1169" math="0" shadow="0">
            <root>
                <mxCell id="0"/>
                <mxCell id="1" parent="0"/>
                <mxCell id="7" value="" style="group" vertex="1" connectable="0" parent="1">
                    <mxGeometry x="44" y="10" width="112" height="185" as="geometry"/>
                </mxCell>
                <mxCell id="2" value="" style="verticalLabelPosition=bottom;verticalAlign=top;html=1;shadow=0;dashed=0;strokeWidth=1;shape=mxgraph.android.phone2;strokeColor=#c0c0c0;" vertex="1" parent="7">
                    <mxGeometry width="112" height="185" as="geometry"/>
                </mxCell>
                <mxCell id="3" value="画面1" style="text;html=1;align=center;verticalAlign=middle;resizable=0;points=[];autosize=1;strokeColor=none;fillColor=none;" vertex="1" parent="7">
                    <mxGeometry x="31.5" y="79.5" width="49" height="26" as="geometry"/>
                </mxCell>
                <mxCell id="8" value="" style="group" vertex="1" connectable="0" parent="1">
                    <mxGeometry x="253" y="10" width="112" height="185" as="geometry"/>
                </mxCell>
                <mxCell id="9" value="" style="verticalLabelPosition=bottom;verticalAlign=top;html=1;shadow=0;dashed=0;strokeWidth=1;shape=mxgraph.android.phone2;strokeColor=#c0c0c0;" vertex="1" parent="8">
                    <mxGeometry width="112" height="185" as="geometry"/>
                </mxCell>
                <mxCell id="10" value="画面2" style="text;html=1;align=center;verticalAlign=middle;resizable=0;points=[];autosize=1;strokeColor=none;fillColor=none;" vertex="1" parent="8">
                    <mxGeometry x="31.5" y="79.5" width="49" height="26" as="geometry"/>
                </mxCell>
                <mxCell id="11" value="" style="group" vertex="1" connectable="0" parent="1">
                    <mxGeometry x="474" y="15" width="112" height="185" as="geometry"/>
                </mxCell>
                <mxCell id="12" value="" style="verticalLabelPosition=bottom;verticalAlign=top;html=1;shadow=0;dashed=0;strokeWidth=1;shape=mxgraph.android.phone2;strokeColor=#c0c0c0;" vertex="1" parent="11">
                    <mxGeometry width="112" height="185" as="geometry"/>
                </mxCell>
                <mxCell id="13" value="画面1" style="text;html=1;align=center;verticalAlign=middle;resizable=0;points=[];autosize=1;strokeColor=none;fillColor=none;" vertex="1" parent="11">
                    <mxGeometry x="31.5" y="79.5" width="49" height="26" as="geometry"/>
                </mxCell>
                <mxCell id="14" value="" style="endArrow=classic;html=1;exitX=0.982;exitY=0.503;exitDx=0;exitDy=0;exitPerimeter=0;entryX=0.018;entryY=0.508;entryDx=0;entryDy=0;entryPerimeter=0;" edge="1" parent="1" source="2" target="9">
                    <mxGeometry width="50" height="50" relative="1" as="geometry">
                        <mxPoint x="180" y="125" as="sourcePoint"/>
                        <mxPoint x="230" y="75" as="targetPoint"/>
                    </mxGeometry>
                </mxCell>
                <mxCell id="15" value="" style="endArrow=classic;html=1;exitX=1;exitY=0.502;exitDx=0;exitDy=0;exitPerimeter=0;entryX=0.009;entryY=0.475;entryDx=0;entryDy=0;entryPerimeter=0;" edge="1" parent="1" source="9" target="12">
                    <mxGeometry width="50" height="50" relative="1" as="geometry">
                        <mxPoint x="369.004" y="101.995" as="sourcePoint"/>
                        <mxPoint x="470.03599999999994" y="102.92000000000002" as="targetPoint"/>
                    </mxGeometry>
                </mxCell>
                <mxCell id="24" style="edgeStyle=none;html=1;entryX=0;entryY=0.5;entryDx=0;entryDy=0;" edge="1" parent="1" source="17" target="19">
                    <mxGeometry relative="1" as="geometry"/>
                </mxCell>
                <mxCell id="17" value="" style="rounded=0;whiteSpace=wrap;html=1;" vertex="1" parent="1">
                    <mxGeometry x="36" y="256" width="130" height="167" as="geometry"/>
                </mxCell>
                <mxCell id="18" value="画面1" style="rounded=0;whiteSpace=wrap;html=1;" vertex="1" parent="1">
                    <mxGeometry x="41" y="380" width="120" height="41" as="geometry"/>
                </mxCell>
                <mxCell id="26" style="edgeStyle=none;html=1;" edge="1" parent="1" source="19" target="22">
                    <mxGeometry relative="1" as="geometry"/>
                </mxCell>
                <mxCell id="19" value="" style="rounded=0;whiteSpace=wrap;html=1;" vertex="1" parent="1">
                    <mxGeometry x="253" y="254" width="130" height="167" as="geometry"/>
                </mxCell>
                <mxCell id="20" value="画面1" style="rounded=0;whiteSpace=wrap;html=1;" vertex="1" parent="1">
                    <mxGeometry x="258" y="378" width="120" height="41" as="geometry"/>
                </mxCell>
                <mxCell id="21" value="画面2" style="rounded=0;whiteSpace=wrap;html=1;" vertex="1" parent="1">
                    <mxGeometry x="260" y="334" width="120" height="41" as="geometry"/>
                </mxCell>
                <mxCell id="22" value="" style="rounded=0;whiteSpace=wrap;html=1;" vertex="1" parent="1">
                    <mxGeometry x="465" y="250" width="130" height="167" as="geometry"/>
                </mxCell>
                <mxCell id="23" value="画面1" style="rounded=0;whiteSpace=wrap;html=1;" vertex="1" parent="1">
                    <mxGeometry x="470" y="374" width="120" height="41" as="geometry"/>
                </mxCell>
                <mxCell id="25" value="Push" style="text;html=1;align=center;verticalAlign=middle;resizable=0;points=[];autosize=1;strokeColor=none;fillColor=none;" vertex="1" parent="1">
                    <mxGeometry x="179" y="308" width="45" height="26" as="geometry"/>
                </mxCell>
                <mxCell id="27" value="Pop" style="text;html=1;align=center;verticalAlign=middle;resizable=0;points=[];autosize=1;strokeColor=none;fillColor=none;" vertex="1" parent="1">
                    <mxGeometry x="402" y="307" width="39" height="26" as="geometry"/>
                </mxCell>
                <mxCell id="29" value="" style="group" vertex="1" connectable="0" parent="1">
                    <mxGeometry x="102" y="543" width="112" height="185" as="geometry"/>
                </mxCell>
                <mxCell id="30" value="" style="verticalLabelPosition=bottom;verticalAlign=top;html=1;shadow=0;dashed=0;strokeWidth=1;shape=mxgraph.android.phone2;strokeColor=#c0c0c0;" vertex="1" parent="29">
                    <mxGeometry width="112" height="185" as="geometry"/>
                </mxCell>
                <mxCell id="31" value="ホーム画面" style="text;html=1;align=center;verticalAlign=middle;resizable=0;points=[];autosize=1;strokeColor=none;fillColor=none;" vertex="1" parent="29">
                    <mxGeometry x="17.5" y="79.5" width="78" height="26" as="geometry"/>
                </mxCell>
                <mxCell id="32" value="" style="group" vertex="1" connectable="0" parent="1">
                    <mxGeometry x="311" y="543" width="112" height="185" as="geometry"/>
                </mxCell>
                <mxCell id="33" value="" style="verticalLabelPosition=bottom;verticalAlign=top;html=1;shadow=0;dashed=0;strokeWidth=1;shape=mxgraph.android.phone2;strokeColor=#c0c0c0;" vertex="1" parent="32">
                    <mxGeometry width="112" height="185" as="geometry"/>
                </mxCell>
                <mxCell id="34" value="設定画面" style="text;html=1;align=center;verticalAlign=middle;resizable=0;points=[];autosize=1;strokeColor=none;fillColor=none;" vertex="1" parent="32">
                    <mxGeometry x="23.5" y="79.5" width="66" height="26" as="geometry"/>
                </mxCell>
                <mxCell id="35" value="" style="group" vertex="1" connectable="0" parent="1">
                    <mxGeometry x="532" y="548" width="113.5" height="185" as="geometry"/>
                </mxCell>
                <mxCell id="36" value="" style="verticalLabelPosition=bottom;verticalAlign=top;html=1;shadow=0;dashed=0;strokeWidth=1;shape=mxgraph.android.phone2;strokeColor=#c0c0c0;" vertex="1" parent="35">
                    <mxGeometry width="112" height="185" as="geometry"/>
                </mxCell>
                <mxCell id="37" value="ユーザー情報画面" style="text;html=1;align=center;verticalAlign=middle;resizable=0;points=[];autosize=1;strokeColor=none;fillColor=none;" vertex="1" parent="35">
                    <mxGeometry x="-0.5" y="79.5" width="114" height="26" as="geometry"/>
                </mxCell>
                <mxCell id="38" value="" style="endArrow=classic;html=1;exitX=0.982;exitY=0.503;exitDx=0;exitDy=0;exitPerimeter=0;entryX=0.018;entryY=0.508;entryDx=0;entryDy=0;entryPerimeter=0;" edge="1" source="30" target="33" parent="1">
                    <mxGeometry width="50" height="50" relative="1" as="geometry">
                        <mxPoint x="238" y="658" as="sourcePoint"/>
                        <mxPoint x="288" y="608" as="targetPoint"/>
                    </mxGeometry>
                </mxCell>
                <mxCell id="39" value="" style="endArrow=classic;html=1;exitX=1;exitY=0.502;exitDx=0;exitDy=0;exitPerimeter=0;entryX=0.009;entryY=0.475;entryDx=0;entryDy=0;entryPerimeter=0;" edge="1" source="33" target="36" parent="1">
                    <mxGeometry width="50" height="50" relative="1" as="geometry">
                        <mxPoint x="427.004" y="634.995" as="sourcePoint"/>
                        <mxPoint x="528.036" y="635.9200000000001" as="targetPoint"/>
                    </mxGeometry>
                </mxCell>
                <mxCell id="40" style="edgeStyle=none;html=1;entryX=0;entryY=0.5;entryDx=0;entryDy=0;" edge="1" source="41" target="44" parent="1">
                    <mxGeometry relative="1" as="geometry"/>
                </mxCell>
                <mxCell id="41" value="" style="rounded=0;whiteSpace=wrap;html=1;" vertex="1" parent="1">
                    <mxGeometry x="94" y="789" width="130" height="167" as="geometry"/>
                </mxCell>
                <mxCell id="42" value="ホーム画面" style="rounded=0;whiteSpace=wrap;html=1;" vertex="1" parent="1">
                    <mxGeometry x="99" y="913" width="120" height="41" as="geometry"/>
                </mxCell>
                <mxCell id="43" style="edgeStyle=none;html=1;" edge="1" source="44" target="47" parent="1">
                    <mxGeometry relative="1" as="geometry"/>
                </mxCell>
                <mxCell id="44" value="" style="rounded=0;whiteSpace=wrap;html=1;" vertex="1" parent="1">
                    <mxGeometry x="311" y="787" width="130" height="167" as="geometry"/>
                </mxCell>
                <mxCell id="45" value="ホーム画面" style="rounded=0;whiteSpace=wrap;html=1;" vertex="1" parent="1">
                    <mxGeometry x="316" y="911" width="120" height="41" as="geometry"/>
                </mxCell>
                <mxCell id="46" value="設定画面" style="rounded=0;whiteSpace=wrap;html=1;" vertex="1" parent="1">
                    <mxGeometry x="318" y="867" width="120" height="41" as="geometry"/>
                </mxCell>
                <mxCell id="47" value="" style="rounded=0;whiteSpace=wrap;html=1;" vertex="1" parent="1">
                    <mxGeometry x="523" y="783" width="130" height="167" as="geometry"/>
                </mxCell>
                <mxCell id="48" value="ホーム画面" style="rounded=0;whiteSpace=wrap;html=1;" vertex="1" parent="1">
                    <mxGeometry x="528" y="907" width="120" height="41" as="geometry"/>
                </mxCell>
                <mxCell id="49" value="Push" style="text;html=1;align=center;verticalAlign=middle;resizable=0;points=[];autosize=1;strokeColor=none;fillColor=none;" vertex="1" parent="1">
                    <mxGeometry x="237" y="841" width="45" height="26" as="geometry"/>
                </mxCell>
                <mxCell id="50" value="Push" style="text;html=1;align=center;verticalAlign=middle;resizable=0;points=[];autosize=1;strokeColor=none;fillColor=none;" vertex="1" parent="1">
                    <mxGeometry x="457" y="840" width="45" height="26" as="geometry"/>
                </mxCell>
                <mxCell id="51" value="" style="group" vertex="1" connectable="0" parent="1">
                    <mxGeometry x="768" y="551" width="112" height="185" as="geometry"/>
                </mxCell>
                <mxCell id="52" value="" style="verticalLabelPosition=bottom;verticalAlign=top;html=1;shadow=0;dashed=0;strokeWidth=1;shape=mxgraph.android.phone2;strokeColor=#c0c0c0;" vertex="1" parent="51">
                    <mxGeometry width="112" height="185" as="geometry"/>
                </mxCell>
                <mxCell id="53" value="設定画面" style="text;html=1;align=center;verticalAlign=middle;resizable=0;points=[];autosize=1;strokeColor=none;fillColor=none;" vertex="1" parent="51">
                    <mxGeometry x="23.5" y="79.5" width="66" height="26" as="geometry"/>
                </mxCell>
                <mxCell id="54" value="" style="endArrow=classic;html=1;exitX=1;exitY=0.502;exitDx=0;exitDy=0;exitPerimeter=0;entryX=0;entryY=0.497;entryDx=0;entryDy=0;entryPerimeter=0;" edge="1" parent="1" target="52">
                    <mxGeometry width="50" height="50" relative="1" as="geometry">
                        <mxPoint x="648" y="643" as="sourcePoint"/>
                        <mxPoint x="758.008" y="643.0050000000001" as="targetPoint"/>
                    </mxGeometry>
                </mxCell>
                <mxCell id="55" value="" style="rounded=0;whiteSpace=wrap;html=1;" vertex="1" parent="1">
                    <mxGeometry x="759" y="785" width="130" height="167" as="geometry"/>
                </mxCell>
                <mxCell id="56" value="進む" style="text;html=1;align=center;verticalAlign=middle;resizable=0;points=[];autosize=1;strokeColor=none;fillColor=none;" vertex="1" parent="1">
                    <mxGeometry x="239" y="608" width="42" height="26" as="geometry"/>
                </mxCell>
                <mxCell id="57" value="進む" style="text;html=1;align=center;verticalAlign=middle;resizable=0;points=[];autosize=1;strokeColor=none;fillColor=none;" vertex="1" parent="1">
                    <mxGeometry x="457" y="608" width="42" height="26" as="geometry"/>
                </mxCell>
                <mxCell id="58" value="戻る" style="text;html=1;align=center;verticalAlign=middle;resizable=0;points=[];autosize=1;strokeColor=none;fillColor=none;" vertex="1" parent="1">
                    <mxGeometry x="681" y="615" width="42" height="26" as="geometry"/>
                </mxCell>
                <mxCell id="60" style="edgeStyle=none;html=1;entryX=0;entryY=0.5;entryDx=0;entryDy=0;" edge="1" parent="1" target="55">
                    <mxGeometry relative="1" as="geometry">
                        <mxPoint x="658.5" y="871.07" as="sourcePoint"/>
                        <mxPoint x="745.5" y="869.9252631578948" as="targetPoint"/>
                    </mxGeometry>
                </mxCell>
                <mxCell id="61" value="Pop" style="text;html=1;align=center;verticalAlign=middle;resizable=0;points=[];autosize=1;strokeColor=none;fillColor=none;" vertex="1" parent="1">
                    <mxGeometry x="687" y="840" width="39" height="26" as="geometry"/>
                </mxCell>
                <mxCell id="62" value="設定画面" style="rounded=0;whiteSpace=wrap;html=1;" vertex="1" parent="1">
                    <mxGeometry x="528" y="863" width="120" height="41" as="geometry"/>
                </mxCell>
                <mxCell id="63" value="ユーザー情報画面" style="rounded=0;whiteSpace=wrap;html=1;" vertex="1" parent="1">
                    <mxGeometry x="528.75" y="818" width="120" height="41" as="geometry"/>
                </mxCell>
                <mxCell id="64" value="ホーム画面" style="rounded=0;whiteSpace=wrap;html=1;" vertex="1" parent="1">
                    <mxGeometry x="764" y="907" width="120" height="41" as="geometry"/>
                </mxCell>
                <mxCell id="65" value="設定画面" style="rounded=0;whiteSpace=wrap;html=1;" vertex="1" parent="1">
                    <mxGeometry x="764" y="861" width="120" height="41" as="geometry"/>
                </mxCell>
                <mxCell id="66" value="Navigator１.0" style="text;html=1;align=center;verticalAlign=middle;resizable=0;points=[];autosize=1;strokeColor=none;fillColor=none;" vertex="1" parent="1">
                    <mxGeometry x="-67" y="496" width="91" height="26" as="geometry"/>
                </mxCell>
                <mxCell id="67" value="" style="group" vertex="1" connectable="0" parent="1">
                    <mxGeometry x="127" y="1074" width="113.5" height="185" as="geometry"/>
                </mxCell>
                <mxCell id="68" value="" style="verticalLabelPosition=bottom;verticalAlign=top;html=1;shadow=0;dashed=0;strokeWidth=1;shape=mxgraph.android.phone2;strokeColor=#c0c0c0;" vertex="1" parent="67">
                    <mxGeometry width="112" height="185" as="geometry"/>
                </mxCell>
                <mxCell id="69" value="ユーザー情報画面" style="text;html=1;align=center;verticalAlign=middle;resizable=0;points=[];autosize=1;strokeColor=none;fillColor=none;" vertex="1" parent="67">
                    <mxGeometry x="-0.5" y="79.5" width="114" height="26" as="geometry"/>
                </mxCell>
                <mxCell id="70" value="" style="group" vertex="1" connectable="0" parent="1">
                    <mxGeometry x="336" y="1074" width="112" height="185" as="geometry"/>
                </mxCell>
                <mxCell id="71" value="" style="verticalLabelPosition=bottom;verticalAlign=top;html=1;shadow=0;dashed=0;strokeWidth=1;shape=mxgraph.android.phone2;strokeColor=#c0c0c0;" vertex="1" parent="70">
                    <mxGeometry width="112" height="185" as="geometry"/>
                </mxCell>
                <mxCell id="72" value="設定画面" style="text;html=1;align=center;verticalAlign=middle;resizable=0;points=[];autosize=1;strokeColor=none;fillColor=none;" vertex="1" parent="70">
                    <mxGeometry x="23.5" y="79.5" width="66" height="26" as="geometry"/>
                </mxCell>
                <mxCell id="76" value="" style="endArrow=classic;html=1;exitX=0.982;exitY=0.503;exitDx=0;exitDy=0;exitPerimeter=0;entryX=0.018;entryY=0.508;entryDx=0;entryDy=0;entryPerimeter=0;" edge="1" source="68" target="71" parent="1">
                    <mxGeometry width="50" height="50" relative="1" as="geometry">
                        <mxPoint x="263" y="1189" as="sourcePoint"/>
                        <mxPoint x="313" y="1139" as="targetPoint"/>
                    </mxGeometry>
                </mxCell>
                <mxCell id="78" style="edgeStyle=none;html=1;entryX=0;entryY=0.5;entryDx=0;entryDy=0;" edge="1" source="79" target="82" parent="1">
                    <mxGeometry relative="1" as="geometry"/>
                </mxCell>
                <mxCell id="79" value="" style="rounded=0;whiteSpace=wrap;html=1;" vertex="1" parent="1">
                    <mxGeometry x="119" y="1320" width="130" height="167" as="geometry"/>
                </mxCell>
                <mxCell id="80" value="ホーム画面" style="rounded=0;whiteSpace=wrap;html=1;" vertex="1" parent="1">
                    <mxGeometry x="124" y="1444" width="120" height="41" as="geometry"/>
                </mxCell>
                <mxCell id="82" value="" style="rounded=0;whiteSpace=wrap;html=1;" vertex="1" parent="1">
                    <mxGeometry x="336" y="1318" width="130" height="167" as="geometry"/>
                </mxCell>
                <mxCell id="87" value="Pop" style="text;html=1;align=center;verticalAlign=middle;resizable=0;points=[];autosize=1;strokeColor=none;fillColor=none;" vertex="1" parent="1">
                    <mxGeometry x="265" y="1372" width="39" height="26" as="geometry"/>
                </mxCell>
                <mxCell id="89" value="Navigator2.0" style="text;html=1;align=center;verticalAlign=middle;resizable=0;points=[];autosize=1;strokeColor=none;fillColor=none;" vertex="1" parent="1">
                    <mxGeometry x="-57" y="1030" width="86" height="26" as="geometry"/>
                </mxCell>
                <mxCell id="91" value="" style="endArrow=classic;html=1;exitX=0.982;exitY=0.503;exitDx=0;exitDy=0;exitPerimeter=0;entryX=0.018;entryY=0.508;entryDx=0;entryDy=0;entryPerimeter=0;" edge="1" parent="1">
                    <mxGeometry width="50" height="50" relative="1" as="geometry">
                        <mxPoint x="-15.996000000000095" y="1290.9950000000001" as="sourcePoint"/>
                        <mxPoint x="85.03600000000006" y="1291.92" as="targetPoint"/>
                    </mxGeometry>
                </mxCell>
                <mxCell id="92" value="ブラウザのブックマークから" style="text;html=1;align=center;verticalAlign=middle;resizable=0;points=[];autosize=1;strokeColor=none;fillColor=none;" vertex="1" parent="1">
                    <mxGeometry x="-59" y="1249" width="174" height="26" as="geometry"/>
                </mxCell>
                <mxCell id="93" value="戻る" style="text;html=1;align=center;verticalAlign=middle;resizable=0;points=[];autosize=1;strokeColor=none;fillColor=none;" vertex="1" parent="1">
                    <mxGeometry x="260" y="1132" width="42" height="26" as="geometry"/>
                </mxCell>
                <mxCell id="94" value="ユーザー情報画面" style="rounded=0;whiteSpace=wrap;html=1;" vertex="1" parent="1">
                    <mxGeometry x="124" y="1357" width="120" height="41" as="geometry"/>
                </mxCell>
                <mxCell id="95" value="設定画面" style="rounded=0;whiteSpace=wrap;html=1;" vertex="1" parent="1">
                    <mxGeometry x="124" y="1401" width="120" height="41" as="geometry"/>
                </mxCell>
                <mxCell id="96" value="ホーム画面" style="rounded=0;whiteSpace=wrap;html=1;" vertex="1" parent="1">
                    <mxGeometry x="341" y="1442" width="120" height="41" as="geometry"/>
                </mxCell>
                <mxCell id="97" value="設定画面" style="rounded=0;whiteSpace=wrap;html=1;" vertex="1" parent="1">
                    <mxGeometry x="341" y="1398" width="120" height="41" as="geometry"/>
                </mxCell>
            </root>
        </mxGraphModel>
    </diagram>
</mxfile>
